<svg xmlns="http://www.w3.org/2000/svg" width="43" height="45" viewBox="0 0 43 45">
    <g fill="none" fill-rule="evenodd">
        <path fill="#FBBC05" d="M9.035 22.254c0-1.414.235-2.77.654-4.041L2.351 12.61a21.76 21.76 0 0 0-2.236 9.644c0 3.467.805 6.737 2.233 9.638l7.334-5.614a12.88 12.88 0 0 1-.647-4.024"/>
        <path fill="#EA4335" d="M21.919 9.39c3.072 0 5.847 1.088 8.028 2.87l6.342-6.334C32.424 2.561 27.47.483 21.92.483A21.74 21.74 0 0 0 2.35 12.61l7.338 5.603A12.849 12.849 0 0 1 21.92 9.39"/>
        <path fill="#34A853" d="M21.919 35.12a12.849 12.849 0 0 1-12.23-8.824l-7.338 5.602A21.738 21.738 0 0 0 21.92 44.026c5.318 0 10.395-1.889 14.206-5.426l-6.965-5.385c-1.966 1.238-4.44 1.904-7.241 1.904"/>
        <path fill="#4285F4" d="M42.731 22.254c0-1.286-.198-2.671-.495-3.958H21.919v8.412h11.695c-.585 2.867-2.177 5.072-4.454 6.507l6.965 5.385c4.003-3.715 6.606-9.25 6.606-16.346"/>
    </g>
</svg>
