<svg xmlns="http://www.w3.org/2000/svg" width="35" height="35" viewBox="0 0 35 35">
    <path fill="#FFF" fill-rule="evenodd" d="M17.155.116c4.628 0 5.208.02 7.026.102 1.813.083 3.052.371 4.136.792a8.352 8.352 0 0 1 3.018 1.965A8.352 8.352 0 0 1 33.3 5.993c.421 1.084.71 2.322.792 4.136.083 1.817.102 2.397.102 7.025 0 4.627-.02 5.207-.102 7.024-.083 1.814-.371 3.052-.792 4.136a8.352 8.352 0 0 1-1.965 3.018 8.353 8.353 0 0 1-3.018 1.965c-1.084.421-2.323.709-4.136.792-1.818.083-2.398.102-7.026.102-4.627 0-5.207-.02-7.025-.102-1.813-.083-3.052-.371-4.136-.792a8.353 8.353 0 0 1-3.018-1.965 8.351 8.351 0 0 1-1.965-3.018C.59 27.23.301 25.992.22 24.178c-.083-1.817-.102-2.397-.102-7.024 0-4.628.02-5.208.102-7.025.083-1.814.37-3.052.792-4.136a8.351 8.351 0 0 1 1.965-3.018A8.352 8.352 0 0 1 5.994 1.01C7.078.59 8.317.301 10.13.218c1.818-.083 2.398-.102 7.025-.102zm0 3.07c-4.55 0-5.088.017-6.885.099-1.661.076-2.563.353-3.164.587a5.278 5.278 0 0 0-1.959 1.274 5.278 5.278 0 0 0-1.274 1.96c-.234.6-.511 1.502-.587 3.163-.082 1.796-.1 2.335-.1 6.885 0 4.549.018 5.088.1 6.884.076 1.661.353 2.564.587 3.164.309.795.678 1.363 1.274 1.959a5.278 5.278 0 0 0 1.96 1.274c.6.234 1.502.511 3.163.587 1.797.082 2.336.1 6.885.1 4.55 0 5.09-.018 6.886-.1 1.66-.076 2.563-.353 3.163-.587a5.278 5.278 0 0 0 1.96-1.274 5.278 5.278 0 0 0 1.274-1.96c.234-.6.511-1.502.587-3.163.082-1.796.1-2.335.1-6.884 0-4.55-.018-5.089-.1-6.885-.076-1.661-.353-2.564-.587-3.164a5.278 5.278 0 0 0-1.274-1.959 5.278 5.278 0 0 0-1.96-1.274c-.6-.234-1.502-.511-3.163-.587-1.797-.082-2.336-.1-6.886-.1zm0 5.218a8.75 8.75 0 1 1 0 17.499 8.75 8.75 0 1 1 0-17.499zm0 14.429a5.68 5.68 0 1 0 0-11.36 5.68 5.68 0 0 0 0 11.36zm11.14-14.774a2.045 2.045 0 1 1-4.089 0 2.045 2.045 0 0 1 4.09 0z"/>
</svg>
