<svg xmlns="http://www.w3.org/2000/svg" width="36" height="36" viewBox="0 0 36 36">
    <g fill="none" fill-rule="evenodd">
        <ellipse cx="17.969" cy="17.968" fill="#548CFF" rx="17.969" ry="17.968"/>
        <path fill="#FFF" d="M24.609 13.56a2.25 2.25 0 0 1 .157-.005c1.132 0 2.05.847 2.05 1.891 0 .614-.317 1.16-.808 1.505.485.28.807.771.807 1.332 0 .686-.482 1.27-1.155 1.486.504.276.84.778.84 1.351 0 .705-.51 1.303-1.212 1.504.353.23.582.6.582 1.018 0 .649-.552 1.184-1.261 1.253v.008h-8.59a1.814 1.814 0 0 1-1.813-1.814v-8.173c0-.247.065-.477.18-.677-.063-.07-.08-.141-.042-.211.349-.649 3.783-3.783 3.94-4.886.158-1.104.583-2.837 1.284-2.837h.21c.927 0 1.756.75 1.81 1.672 0 0 .499 3.666-1.393 5.578h4.414v.005zM10.01 14.816h.785c1.002 0 1.814.812 1.814 1.814v7.72a1.814 1.814 0 0 1-1.814 1.814h-.785a1.814 1.814 0 0 1-1.815-1.815V16.63c0-1.002.813-1.814 1.815-1.814z"/>
    </g>
</svg>
