<svg xmlns="http://www.w3.org/2000/svg" width="25" height="21" viewBox="0 0 25 21">
    <path fill="#FFF" fill-rule="evenodd" d="M24.542 2.879a9.752 9.752 0 0 1-2.866.805A5.108 5.108 0 0 0 23.87.854a9.833 9.833 0 0 1-3.172 1.24A4.924 4.924 0 0 0 17.055.478c-2.755 0-4.99 2.292-4.99 5.119 0 .401.042.79.128 1.166-4.15-.214-7.827-2.25-10.291-5.35a5.212 5.212 0 0 0-.676 2.576c0 1.775.881 3.342 2.221 4.26a4.902 4.902 0 0 1-2.262-.638v.063c0 2.48 1.72 4.55 4.006 5.02-.418.12-.86.18-1.315.18a4.85 4.85 0 0 1-.94-.092c.635 2.033 2.478 3.514 4.663 3.554a9.858 9.858 0 0 1-7.391 2.122 13.9 13.9 0 0 0 7.653 2.298c9.184 0 14.205-7.8 14.205-14.564 0-.223-.005-.446-.013-.664a10.246 10.246 0 0 0 2.49-2.65"/>
</svg>
