<svg xmlns="http://www.w3.org/2000/svg" width="152" height="45" viewBox="0 0 152 45">
    <g fill="#FFF" fill-rule="evenodd">
        <path d="M63.173 14.905c-.097-.171-.252-.28-.423-.28h-.77c-.17 0-.33.117-.422.28L52.903 29.9l-.005.011a.226.226 0 0 1-.007.018c-.006.013-.016.035-.016.312v.715c0 .182.148.33.33.33h.723c.17 0 .331-.127.42-.28l8.015-13.898 7.056 12.231c.016.041.015.078-.002.103-.017.026-.052.04-.098.04H57.595c-.17 0-.357.122-.449.28l-.685 1.189a.247.247 0 0 0 .012.235c.043.064.12.101.212.101H71.49a.33.33 0 0 0 .33-.33v-.715c0-.155-.047-.387-.106-.529l-8.541-14.81zM131.22 25.341a7.027 7.027 0 0 1-1.184 2.101 5.916 5.916 0 0 1-1.834 1.486c-.707.369-1.512.555-2.392.555-.855 0-1.651-.18-2.364-.536a5.986 5.986 0 0 1-1.867-1.444 6.619 6.619 0 0 1-1.213-2.088 7.138 7.138 0 0 1-.43-2.457c0-.806.14-1.608.42-2.385a6.898 6.898 0 0 1 1.194-2.1 5.961 5.961 0 0 1 1.856-1.485c.713-.37 1.522-.557 2.404-.557.838 0 1.62.18 2.318.536a6.056 6.056 0 0 1 1.847 1.445A6.798 6.798 0 0 1 131.2 20.5a7.015 7.015 0 0 1 .02 4.841m.13-8.071a7.88 7.88 0 0 0-2.418-1.912c-.943-.486-1.997-.733-3.132-.733-1.088 0-2.115.23-3.05.686a7.75 7.75 0 0 0-2.43 1.842 8.845 8.845 0 0 0-1.609 2.658 8.625 8.625 0 0 0-.586 3.146 8.91 8.91 0 0 0 .55 3.074c.368 1 .894 1.894 1.565 2.66a8.085 8.085 0 0 0 2.417 1.877c.936.478 1.986.72 3.12.72 1.089 0 2.115-.23 3.05-.686a7.854 7.854 0 0 0 2.43-1.83 8.734 8.734 0 0 0 1.644-8.834 8.877 8.877 0 0 0-1.55-2.668M85.417 29.483l-9.174-.002a.191.191 0 0 1-.19-.191V14.955a.33.33 0 0 0-.33-.33H74.58a.33.33 0 0 0-.33.33v16.002c0 .182.148.33.33.33h9.845a.59.59 0 0 0 .46-.255l.711-1.223c.052-.081.06-.162.025-.226-.036-.065-.108-.1-.204-.1M97.013 27.743c-.168.398-.365.71-.603.953-.548.563-1.6.787-1.995.787h-5.798a.191.191 0 0 1-.19-.191v-12.67c0-.105.085-.191.19-.191h5.461c.795 0 1.346.216 1.787.699.208.229.38.562.525.948.114.31.165.645.165 1.087 0 .428-.059.8-.175 1.104a2.97 2.97 0 0 1-.557.924c-.234.262-.441.374-.76.534a2.309 2.309 0 0 1-1.045.235h-2.227c-.17 0-.328.123-.42.282l-.7 1.22a.25.25 0 0 0 .015.236.25.25 0 0 0 .213.101h3.689c.439 0 1.336.213 1.876.784.231.245.417.557.567.956.117.31.17.654.17 1.112 0 .44-.06.786-.188 1.09m-.368-4.983c-.039-.02-.062-.044-.064-.065-.002-.021.018-.05.054-.075a3.99 3.99 0 0 0 1.074-1.184 4.613 4.613 0 0 0 .655-2.402c0-.528-.094-1.061-.278-1.585a4.635 4.635 0 0 0-.787-1.407 4.114 4.114 0 0 0-1.244-1.018 3.487 3.487 0 0 0-1.661-.399h-7.44a.33.33 0 0 0-.329.33v16.003c0 .182.148.33.33.33h7.46c.622 0 1.223-.114 1.787-.34a4.502 4.502 0 0 0 2.47-2.37c.243-.543.366-1.138.366-1.767 0-1.012-.29-1.93-.86-2.727a4.245 4.245 0 0 0-1.533-1.324M114.356 25.34a7.025 7.025 0 0 1-1.187 2.102 5.929 5.929 0 0 1-1.838 1.486c-.707.369-1.514.555-2.396.555-.857 0-1.654-.18-2.369-.537a5.992 5.992 0 0 1-1.87-1.443 6.614 6.614 0 0 1-1.215-2.088 7.126 7.126 0 0 1-.431-2.457c0-.806.14-1.608.42-2.385a6.891 6.891 0 0 1 1.198-2.1 5.97 5.97 0 0 1 1.859-1.485c.714-.37 1.524-.557 2.408-.557.84 0 1.622.18 2.323.536.707.358 1.33.845 1.85 1.445a6.794 6.794 0 0 1 1.227 2.088 7 7 0 0 1 .02 4.84m.12-8.07a7.88 7.88 0 0 0-2.418-1.912c-.943-.486-1.997-.733-3.132-.733-1.088 0-2.115.23-3.05.686a7.749 7.749 0 0 0-2.43 1.842 8.847 8.847 0 0 0-1.609 2.658 8.625 8.625 0 0 0-.586 3.146 8.91 8.91 0 0 0 .55 3.074c.368 1 .894 1.894 1.565 2.66a8.084 8.084 0 0 0 2.417 1.877c.936.478 1.986.72 3.12.72 1.089 0 2.115-.23 3.05-.686a7.852 7.852 0 0 0 2.43-1.83 8.732 8.732 0 0 0 1.644-8.834 8.877 8.877 0 0 0-1.55-2.668M149.956 14.625a.57.57 0 0 0-.452.26l-.891 1.547-5.429 9.411-5.43-9.411-.892-1.547a.57.57 0 0 0-.451-.26h-1.082a.33.33 0 0 0-.329.33v16.089c0 .144.09.245.217.245.038 0 .078-.01.118-.027l1.195-.69c.179-.107.28-.258.28-.43V18.389l5.562 9.64c.107.185.258.28.429.28h.765c.17 0 .321-.095.428-.28l5.563-9.64v11.754c0 .172.108.33.28.43l1.195.689c.04.018.08.027.118.027.127 0 .217-.1.217-.245V14.955a.33.33 0 0 0-.33-.33h-1.081zM28.025 36.492l-17.207-9.945c-1.052-.607-1.052-1.601 0-2.209l1.194-.69 1.803 1.042-1.302.753 15.619 9.028V11.164L12.45 20.228l2.74 1.584 4.075 2.355 4.016 2.321V19.22l-4.916 2.84-1.803-1.041 6.612-3.821c1.05-.608 1.91-.11 1.91 1.104v9.103c0 1.215-.86 1.713-1.91 1.105l-7.984-4.614-2.38-1.376-2-1.154c-1.052-.607-1.053-1.675-.002-2.282l17.218-9.942c1.051-.608 1.911-.11 1.911 1.104v25.141c0 1.215-.86 1.713-1.911 1.105M22.464 0C10.057 0 0 10.068 0 22.487c0 12.418 10.057 22.486 22.464 22.486 12.406 0 22.463-10.068 22.463-22.486C44.927 10.067 34.87 0 22.464 0"/>
    </g>
</svg>
